<svg width="167" height="37" viewBox="0 0 167 37" fill="none" xmlns="http://www.w3.org/2000/svg">
<path d="M0.489219 29V1.56H11.6892C14.5426 1.56 16.9692 2.05333 18.9692 3.04C20.9692 4.02666 22.5026 5.53333 23.5692 7.56C24.6626 9.56 25.2092 12.1333 25.2092 15.28C25.2092 18.4 24.6626 20.9733 23.5692 23C22.5026 25.0267 20.9692 26.5333 18.9692 27.52C16.9692 28.5067 14.5426 29 11.6892 29H0.489219ZM6.44922 24.08H11.6492C12.8492 24.08 13.9159 23.9067 14.8492 23.56C15.7826 23.2133 16.5559 22.7067 17.1692 22.04C17.7826 21.3467 18.2492 20.4933 18.5692 19.48C18.8892 18.44 19.0492 17.24 19.0492 15.88V14.68C19.0492 13.32 18.8892 12.1333 18.5692 11.12C18.2492 10.08 17.7826 9.22667 17.1692 8.56C16.5559 7.86667 15.7826 7.34667 14.8492 7C13.9159 6.62667 12.8492 6.44 11.6492 6.44H6.44922V24.08ZM29.5795 4.88V0.079998H35.1395V4.88H29.5795ZM29.5795 29V7.96H35.1395V29H29.5795ZM45.6836 29L37.8436 7.96H43.7236L46.8036 16.84C46.9636 17.2933 47.1503 17.8933 47.3636 18.64C47.6036 19.3867 47.8436 20.1733 48.0836 21C48.3236 21.8267 48.5236 22.5733 48.6836 23.24H48.8836C49.0703 22.6267 49.2703 21.92 49.4836 21.12C49.6969 20.2933 49.9103 19.5067 50.1236 18.76C50.3636 17.9867 50.5636 17.3467 50.7236 16.84L53.8036 7.96H59.4036L51.5236 29H45.6836ZM71.6786 29.48C69.3586 29.48 67.4119 29.0933 65.8386 28.32C64.2653 27.52 63.0786 26.3067 62.2786 24.68C61.4786 23.0533 61.0786 20.9867 61.0786 18.48C61.0786 15.9467 61.4786 13.88 62.2786 12.28C63.0786 10.6533 64.2519 9.45333 65.7986 8.68C67.3719 7.88 69.2919 7.48 71.5586 7.48C73.6919 7.48 75.4919 7.86667 76.9586 8.64C78.4253 9.38667 79.5319 10.56 80.2786 12.16C81.0253 13.7333 81.3986 15.7733 81.3986 18.28V19.72H66.7186C66.7719 20.9467 66.9586 21.9867 67.2786 22.84C67.6253 23.6933 68.1453 24.3333 68.8386 24.76C69.5586 25.16 70.5053 25.36 71.6786 25.36C72.3186 25.36 72.8919 25.28 73.3986 25.12C73.9319 24.96 74.3853 24.72 74.7586 24.4C75.1319 24.08 75.4253 23.68 75.6386 23.2C75.8519 22.72 75.9586 22.1733 75.9586 21.56H81.3986C81.3986 22.8933 81.1586 24.0533 80.6786 25.04C80.1986 26.0267 79.5319 26.8533 78.6786 27.52C77.8253 28.16 76.7986 28.6533 75.5986 29C74.4253 29.32 73.1186 29.48 71.6786 29.48ZM66.7986 16.2H75.6786C75.6786 15.4 75.5719 14.7067 75.3586 14.12C75.1719 13.5333 74.9053 13.0533 74.5586 12.68C74.2119 12.3067 73.7853 12.04 73.2786 11.88C72.7986 11.6933 72.2519 11.6 71.6386 11.6C70.6253 11.6 69.7719 11.7733 69.0786 12.12C68.4119 12.44 67.8919 12.9467 67.5186 13.64C67.1719 14.3067 66.9319 15.16 66.7986 16.2ZM85.478 29V7.96H90.078L90.518 11.24H90.798C91.0646 10.5467 91.4113 9.92 91.838 9.36C92.2646 8.77333 92.798 8.30667 93.438 7.96C94.078 7.61333 94.8246 7.44 95.678 7.44C96.1313 7.44 96.5446 7.49333 96.918 7.6C97.2913 7.68 97.5713 7.76 97.758 7.84V12.88H96.038C95.2113 12.88 94.478 13 93.838 13.24C93.2246 13.4533 92.7046 13.8 92.278 14.28C91.8513 14.76 91.5313 15.3467 91.318 16.04C91.1313 16.7333 91.038 17.5467 91.038 18.48V29H85.478ZM109.193 29.48C107.727 29.48 106.407 29.32 105.233 29C104.06 28.68 103.06 28.24 102.233 27.68C101.407 27.0933 100.767 26.4 100.313 25.6C99.8866 24.8 99.6733 23.8933 99.6733 22.88C99.6733 22.7733 99.6733 22.6667 99.6733 22.56C99.6733 22.4533 99.6866 22.3733 99.7133 22.32H105.073C105.073 22.3733 105.073 22.4267 105.073 22.48C105.073 22.5333 105.073 22.5867 105.073 22.64C105.1 23.3067 105.313 23.8533 105.713 24.28C106.113 24.68 106.633 24.9733 107.273 25.16C107.94 25.3467 108.633 25.44 109.353 25.44C109.993 25.44 110.607 25.3867 111.193 25.28C111.807 25.1467 112.313 24.92 112.713 24.6C113.14 24.28 113.353 23.8667 113.353 23.36C113.353 22.72 113.087 22.2267 112.553 21.88C112.047 21.5333 111.367 21.2533 110.513 21.04C109.687 20.8267 108.78 20.5867 107.793 20.32C106.887 20.1067 105.98 19.8667 105.073 19.6C104.167 19.3067 103.34 18.9333 102.593 18.48C101.873 18.0267 101.287 17.44 100.833 16.72C100.38 15.9733 100.153 15.04 100.153 13.92C100.153 12.8267 100.393 11.88 100.873 11.08C101.353 10.2533 102.007 9.57333 102.833 9.04C103.687 8.50667 104.673 8.12 105.793 7.88C106.94 7.61333 108.167 7.48 109.473 7.48C110.7 7.48 111.847 7.61333 112.913 7.88C113.98 8.12 114.913 8.49333 115.713 9C116.513 9.48 117.14 10.0933 117.593 10.84C118.047 11.56 118.273 12.3733 118.273 13.28C118.273 13.4667 118.273 13.64 118.273 13.8C118.273 13.96 118.26 14.0667 118.233 14.12H112.913V13.8C112.913 13.32 112.767 12.92 112.473 12.6C112.18 12.2533 111.753 11.9867 111.193 11.8C110.66 11.6133 110.007 11.52 109.233 11.52C108.7 11.52 108.207 11.56 107.753 11.64C107.327 11.72 106.953 11.84 106.633 12C106.313 12.16 106.06 12.36 105.873 12.6C105.713 12.8133 105.633 13.08 105.633 13.4C105.633 13.8533 105.82 14.2267 106.193 14.52C106.593 14.7867 107.113 15.0133 107.753 15.2C108.393 15.3867 109.1 15.5867 109.873 15.8C110.833 16.0667 111.833 16.3333 112.873 16.6C113.94 16.84 114.927 17.1733 115.833 17.6C116.74 18.0267 117.473 18.64 118.033 19.44C118.593 20.2133 118.873 21.2667 118.873 22.6C118.873 23.88 118.62 24.96 118.113 25.84C117.633 26.72 116.953 27.4267 116.073 27.96C115.193 28.4933 114.167 28.88 112.993 29.12C111.82 29.36 110.553 29.48 109.193 29.48ZM122.9 4.88V0.079998H128.46V4.88H122.9ZM122.9 29V7.96H128.46V29H122.9ZM139.844 29.48C138.511 29.48 137.431 29.24 136.604 28.76C135.777 28.28 135.177 27.64 134.804 26.84C134.431 26.0133 134.244 25.1067 134.244 24.12V12.24H131.644V7.96H134.444L135.484 1.96H139.804V7.96H143.644V12.24H139.804V23.2C139.804 23.84 139.951 24.3333 140.244 24.68C140.537 25 141.017 25.16 141.684 25.16H143.644V28.84C143.324 28.9467 142.951 29.04 142.524 29.12C142.097 29.2267 141.644 29.3067 141.164 29.36C140.684 29.44 140.244 29.48 139.844 29.48ZM150.276 36.52C149.289 36.52 148.462 36.44 147.796 36.28C147.156 36.1467 146.742 36.0533 146.556 36V32.24H148.996C149.662 32.24 150.262 32.08 150.796 31.76C151.329 31.4667 151.796 31.0667 152.196 30.56C152.596 30.08 152.889 29.56 153.076 29L144.836 7.96H150.716L154.316 17.68C154.476 18.1333 154.649 18.7067 154.836 19.4C155.049 20.0667 155.262 20.7733 155.476 21.52C155.689 22.24 155.862 22.88 155.996 23.44H156.196C156.302 23.0667 156.422 22.6267 156.556 22.12C156.689 21.6133 156.822 21.0933 156.956 20.56C157.116 20.0267 157.262 19.52 157.396 19.04C157.556 18.5333 157.689 18.0933 157.796 17.72L160.796 7.96H166.396L159.236 28C158.836 29.1733 158.369 30.2667 157.836 31.28C157.329 32.32 156.729 33.2267 156.036 34C155.342 34.8 154.516 35.4133 153.556 35.84C152.622 36.2933 151.529 36.52 150.276 36.52Z" fill="url(#paint0_linear_3734_20753)"/>
<defs>
<linearGradient id="paint0_linear_3734_20753" x1="-3" y1="-58" x2="170.499" y2="-51.6534" gradientUnits="userSpaceOnUse">
<stop stop-color="#8AD4EC"/>
<stop offset="0.217372" stop-color="#EF96FF"/>
<stop offset="0.540308" stop-color="#FF56A9"/>
<stop offset="0.852826" stop-color="#FFAA6C"/>
</linearGradient>
</defs>
</svg>
